<mxfile host="app.diagrams.net" agent="Mozilla/5.0 (Windows NT 10.0; Win64; x64) AppleWebKit/537.36 (KHTML, like Gecko) Chrome/141.0.0.0 Safari/537.36 Edg/141.0.0.0" version="28.2.7">
  <diagram name="Page-1" id="16a4L-_NG5sxc4onKiNj">
    <mxGraphModel dx="1477" dy="863" grid="1" gridSize="10" guides="1" tooltips="1" connect="1" arrows="0" fold="1" page="1" pageScale="1" pageWidth="850" pageHeight="1100" background="#ffffff" math="0" shadow="1">
      <root>
        <mxCell id="0" />
        <mxCell id="1" parent="0" />
        <mxCell id="XoTt8RrrgcYG-ivPWkyI-2" value="&lt;font style=&quot;font-size: 20px;&quot;&gt;&lt;b&gt;Decentralized Medical Records with AI Health Summaries&amp;nbsp;&lt;/b&gt;&lt;/font&gt;&lt;div&gt;&lt;font style=&quot;font-size: 20px;&quot;&gt;&lt;b&gt;Component Diagram (AI Team)&lt;/b&gt;&lt;/font&gt;&lt;/div&gt;" style="text;html=1;whiteSpace=wrap;strokeColor=none;fillColor=none;align=center;verticalAlign=middle;rounded=0;" vertex="1" parent="1">
          <mxGeometry x="180" y="100" width="680" height="30" as="geometry" />
        </mxCell>
        <mxCell id="XoTt8RrrgcYG-ivPWkyI-72" value="" style="group" vertex="1" connectable="0" parent="1">
          <mxGeometry x="40" y="180" width="940" height="500" as="geometry" />
        </mxCell>
        <mxCell id="XoTt8RrrgcYG-ivPWkyI-22" value="«component»&lt;br&gt;&lt;b&gt;Backend API&lt;/b&gt;" style="html=1;whiteSpace=wrap;fillColor=#dae8fc;strokeColor=#6c8ebf;" vertex="1" parent="XoTt8RrrgcYG-ivPWkyI-72">
          <mxGeometry width="150" height="50" as="geometry" />
        </mxCell>
        <mxCell id="XoTt8RrrgcYG-ivPWkyI-25" value="" style="shape=providedRequiredInterface;html=1;verticalLabelPosition=bottom;sketch=0;" vertex="1" parent="XoTt8RrrgcYG-ivPWkyI-72">
          <mxGeometry x="150" y="15" width="20" height="20" as="geometry" />
        </mxCell>
        <mxCell id="XoTt8RrrgcYG-ivPWkyI-26" value="" style="endArrow=classic;html=1;rounded=0;exitX=1;exitY=0.5;exitDx=0;exitDy=0;exitPerimeter=0;entryX=0;entryY=0;entryDx=0;entryDy=15;entryPerimeter=0;" edge="1" parent="XoTt8RrrgcYG-ivPWkyI-72" source="XoTt8RrrgcYG-ivPWkyI-25" target="XoTt8RrrgcYG-ivPWkyI-5">
          <mxGeometry width="50" height="50" relative="1" as="geometry">
            <mxPoint x="460" y="210" as="sourcePoint" />
            <mxPoint x="510" y="160" as="targetPoint" />
            <Array as="points">
              <mxPoint x="170" y="25" />
            </Array>
          </mxGeometry>
        </mxCell>
        <mxCell id="XoTt8RrrgcYG-ivPWkyI-38" value="Final Summary Output" style="text;html=1;whiteSpace=wrap;strokeColor=none;fillColor=none;align=center;verticalAlign=middle;rounded=0;" vertex="1" parent="XoTt8RrrgcYG-ivPWkyI-72">
          <mxGeometry x="150" y="290" width="140" height="30" as="geometry" />
        </mxCell>
        <mxCell id="XoTt8RrrgcYG-ivPWkyI-45" value="Medical Report" style="text;html=1;whiteSpace=wrap;strokeColor=none;fillColor=none;align=center;verticalAlign=middle;rounded=0;" vertex="1" parent="XoTt8RrrgcYG-ivPWkyI-72">
          <mxGeometry x="190" y="50" width="140" height="30" as="geometry" />
        </mxCell>
        <mxCell id="XoTt8RrrgcYG-ivPWkyI-47" value="Note:&amp;nbsp;Dotted lines = Logging; Solid lines = Data Flow." style="text;html=1;whiteSpace=wrap;strokeColor=none;fillColor=none;align=center;verticalAlign=middle;rounded=0;fontStyle=2" vertex="1" parent="XoTt8RrrgcYG-ivPWkyI-72">
          <mxGeometry x="15" y="470" width="290" height="30" as="geometry" />
        </mxCell>
        <mxCell id="XoTt8RrrgcYG-ivPWkyI-48" value="«interface»&lt;br&gt;&lt;b&gt;Summary Input&lt;/b&gt;" style="html=1;whiteSpace=wrap;fillColor=#fff2cc;strokeColor=#d6b656;" vertex="1" parent="XoTt8RrrgcYG-ivPWkyI-72">
          <mxGeometry x="190" width="150" height="50" as="geometry" />
        </mxCell>
        <mxCell id="XoTt8RrrgcYG-ivPWkyI-49" value="«interface»&lt;br&gt;&lt;b&gt;Summary Output&lt;/b&gt;" style="html=1;whiteSpace=wrap;fillColor=#fff2cc;strokeColor=#d6b656;" vertex="1" parent="XoTt8RrrgcYG-ivPWkyI-72">
          <mxGeometry y="200" width="150" height="50" as="geometry" />
        </mxCell>
        <mxCell id="XoTt8RrrgcYG-ivPWkyI-69" value="" style="group" vertex="1" connectable="0" parent="XoTt8RrrgcYG-ivPWkyI-72">
          <mxGeometry x="380" y="10" width="560" height="460" as="geometry" />
        </mxCell>
        <mxCell id="XoTt8RrrgcYG-ivPWkyI-5" value="&amp;lt;&amp;lt;component&amp;gt;&amp;gt;&lt;div&gt;&lt;b&gt;AI Summary Service&lt;/b&gt;&lt;/div&gt;" style="shape=module;align=left;spacingLeft=20;align=center;verticalAlign=top;whiteSpace=wrap;html=1;fillColor=#f8cecc;strokeColor=#b85450;" vertex="1" parent="XoTt8RrrgcYG-ivPWkyI-69">
          <mxGeometry x="30" width="530" height="370" as="geometry" />
        </mxCell>
        <mxCell id="XoTt8RrrgcYG-ivPWkyI-8" value="«component»&lt;br&gt;&lt;b&gt;Input Processor&lt;/b&gt;" style="html=1;whiteSpace=wrap;" vertex="1" parent="XoTt8RrrgcYG-ivPWkyI-69">
          <mxGeometry x="117.5" y="60" width="165" height="50" as="geometry" />
        </mxCell>
        <mxCell id="XoTt8RrrgcYG-ivPWkyI-9" value="«component»&lt;br&gt;&lt;b&gt;Summarization Engine&lt;/b&gt;" style="html=1;whiteSpace=wrap;" vertex="1" parent="XoTt8RrrgcYG-ivPWkyI-69">
          <mxGeometry x="117.5" y="130" width="165" height="50" as="geometry" />
        </mxCell>
        <mxCell id="XoTt8RrrgcYG-ivPWkyI-10" value="«component»&lt;br&gt;&lt;b&gt;Risk Analyzer&lt;/b&gt;" style="html=1;whiteSpace=wrap;" vertex="1" parent="XoTt8RrrgcYG-ivPWkyI-69">
          <mxGeometry x="117.5" y="200" width="165" height="50" as="geometry" />
        </mxCell>
        <mxCell id="XoTt8RrrgcYG-ivPWkyI-11" value="«component»&lt;br&gt;&lt;b&gt;Summary Formatter&lt;/b&gt;" style="html=1;whiteSpace=wrap;" vertex="1" parent="XoTt8RrrgcYG-ivPWkyI-69">
          <mxGeometry x="117.5" y="270" width="165" height="50" as="geometry" />
        </mxCell>
        <mxCell id="XoTt8RrrgcYG-ivPWkyI-30" value="" style="group" vertex="1" connectable="0" parent="XoTt8RrrgcYG-ivPWkyI-69">
          <mxGeometry x="380" y="390" width="150" height="70" as="geometry" />
        </mxCell>
        <mxCell id="XoTt8RrrgcYG-ivPWkyI-27" value="«database»&lt;br&gt;&lt;b&gt;Encrypted Storage&lt;/b&gt;" style="html=1;whiteSpace=wrap;fillColor=#d5e8d4;strokeColor=#82b366;" vertex="1" parent="XoTt8RrrgcYG-ivPWkyI-30">
          <mxGeometry y="20" width="150" height="50" as="geometry" />
        </mxCell>
        <mxCell id="XoTt8RrrgcYG-ivPWkyI-28" value="" style="shape=providedRequiredInterface;html=1;verticalLabelPosition=bottom;sketch=0;rotation=-90;" vertex="1" parent="XoTt8RrrgcYG-ivPWkyI-30">
          <mxGeometry x="65" width="20" height="20" as="geometry" />
        </mxCell>
        <mxCell id="XoTt8RrrgcYG-ivPWkyI-31" value="Logs/ Status" style="text;html=1;whiteSpace=wrap;strokeColor=none;fillColor=none;align=center;verticalAlign=middle;rounded=0;" vertex="1" parent="XoTt8RrrgcYG-ivPWkyI-69">
          <mxGeometry x="395" y="290" width="60" height="30" as="geometry" />
        </mxCell>
        <mxCell id="XoTt8RrrgcYG-ivPWkyI-32" value="" style="endArrow=classic;html=1;rounded=0;entryX=0.5;entryY=0;entryDx=0;entryDy=0;" edge="1" parent="XoTt8RrrgcYG-ivPWkyI-69" target="XoTt8RrrgcYG-ivPWkyI-9">
          <mxGeometry width="50" height="50" relative="1" as="geometry">
            <mxPoint x="200" y="110" as="sourcePoint" />
            <mxPoint x="230" y="130" as="targetPoint" />
          </mxGeometry>
        </mxCell>
        <mxCell id="XoTt8RrrgcYG-ivPWkyI-33" value="" style="endArrow=classic;html=1;rounded=0;entryX=0.5;entryY=0;entryDx=0;entryDy=0;exitX=0.5;exitY=1;exitDx=0;exitDy=0;" edge="1" parent="XoTt8RrrgcYG-ivPWkyI-69" source="XoTt8RrrgcYG-ivPWkyI-9" target="XoTt8RrrgcYG-ivPWkyI-10">
          <mxGeometry width="50" height="50" relative="1" as="geometry">
            <mxPoint x="200" y="190" as="sourcePoint" />
            <mxPoint x="200" y="210" as="targetPoint" />
          </mxGeometry>
        </mxCell>
        <mxCell id="XoTt8RrrgcYG-ivPWkyI-35" value="" style="endArrow=classic;html=1;rounded=0;entryX=0.5;entryY=0;entryDx=0;entryDy=0;exitX=0.5;exitY=1;exitDx=0;exitDy=0;" edge="1" parent="XoTt8RrrgcYG-ivPWkyI-69" source="XoTt8RrrgcYG-ivPWkyI-10" target="XoTt8RrrgcYG-ivPWkyI-11">
          <mxGeometry width="50" height="50" relative="1" as="geometry">
            <mxPoint x="210" y="240" as="sourcePoint" />
            <mxPoint x="210" y="260" as="targetPoint" />
          </mxGeometry>
        </mxCell>
        <mxCell id="XoTt8RrrgcYG-ivPWkyI-39" value="«component»&lt;br&gt;&lt;b&gt;AI Logger&lt;/b&gt;" style="html=1;whiteSpace=wrap;" vertex="1" parent="XoTt8RrrgcYG-ivPWkyI-69">
          <mxGeometry x="375" y="170" width="165" height="50" as="geometry" />
        </mxCell>
        <mxCell id="XoTt8RrrgcYG-ivPWkyI-40" value="" style="endArrow=classic;dashed=1;html=1;dashPattern=1 3;strokeWidth=2;rounded=0;entryX=0.25;entryY=0;entryDx=0;entryDy=0;exitX=1;exitY=0.5;exitDx=0;exitDy=0;startArrow=classic;startFill=1;endFill=1;" edge="1" parent="XoTt8RrrgcYG-ivPWkyI-69" source="XoTt8RrrgcYG-ivPWkyI-8" target="XoTt8RrrgcYG-ivPWkyI-39">
          <mxGeometry width="50" height="50" relative="1" as="geometry">
            <mxPoint x="290" y="270" as="sourcePoint" />
            <mxPoint x="340" y="220" as="targetPoint" />
          </mxGeometry>
        </mxCell>
        <mxCell id="XoTt8RrrgcYG-ivPWkyI-41" value="" style="endArrow=classic;dashed=1;html=1;dashPattern=1 3;strokeWidth=2;rounded=0;entryX=0;entryY=0;entryDx=0;entryDy=0;exitX=1;exitY=0.5;exitDx=0;exitDy=0;startArrow=classic;startFill=1;endFill=1;" edge="1" parent="XoTt8RrrgcYG-ivPWkyI-69" source="XoTt8RrrgcYG-ivPWkyI-9" target="XoTt8RrrgcYG-ivPWkyI-39">
          <mxGeometry width="50" height="50" relative="1" as="geometry">
            <mxPoint x="660" y="210" as="sourcePoint" />
            <mxPoint x="793" y="295" as="targetPoint" />
          </mxGeometry>
        </mxCell>
        <mxCell id="XoTt8RrrgcYG-ivPWkyI-42" value="" style="endArrow=classic;dashed=1;html=1;dashPattern=1 3;strokeWidth=2;rounded=0;entryX=0.25;entryY=1;entryDx=0;entryDy=0;exitX=1;exitY=0.5;exitDx=0;exitDy=0;startArrow=classic;startFill=1;endFill=1;" edge="1" parent="XoTt8RrrgcYG-ivPWkyI-69" source="XoTt8RrrgcYG-ivPWkyI-11" target="XoTt8RrrgcYG-ivPWkyI-39">
          <mxGeometry width="50" height="50" relative="1" as="geometry">
            <mxPoint x="600" y="250" as="sourcePoint" />
            <mxPoint x="733" y="335" as="targetPoint" />
          </mxGeometry>
        </mxCell>
        <mxCell id="XoTt8RrrgcYG-ivPWkyI-43" value="" style="endArrow=classic;dashed=1;html=1;dashPattern=1 3;strokeWidth=2;rounded=0;entryX=0;entryY=1;entryDx=0;entryDy=0;exitX=1;exitY=0.5;exitDx=0;exitDy=0;startArrow=classic;startFill=1;endFill=1;" edge="1" parent="XoTt8RrrgcYG-ivPWkyI-69" source="XoTt8RrrgcYG-ivPWkyI-10" target="XoTt8RrrgcYG-ivPWkyI-39">
          <mxGeometry width="50" height="50" relative="1" as="geometry">
            <mxPoint x="660" y="240" as="sourcePoint" />
            <mxPoint x="793" y="325" as="targetPoint" />
          </mxGeometry>
        </mxCell>
        <mxCell id="XoTt8RrrgcYG-ivPWkyI-44" value="Logs/ Status" style="text;html=1;whiteSpace=wrap;strokeColor=none;fillColor=none;align=center;verticalAlign=middle;rounded=0;" vertex="1" parent="XoTt8RrrgcYG-ivPWkyI-69">
          <mxGeometry x="285" y="180" width="90" height="30" as="geometry" />
        </mxCell>
        <mxCell id="XoTt8RrrgcYG-ivPWkyI-46" value="" style="endArrow=classic;html=1;rounded=0;exitX=1;exitY=0.5;exitDx=0;exitDy=0;exitPerimeter=0;entryX=0.5;entryY=1;entryDx=0;entryDy=0;" edge="1" parent="XoTt8RrrgcYG-ivPWkyI-69" source="XoTt8RrrgcYG-ivPWkyI-28" target="XoTt8RrrgcYG-ivPWkyI-39">
          <mxGeometry width="50" height="50" relative="1" as="geometry">
            <mxPoint x="180" y="340" as="sourcePoint" />
            <mxPoint x="230" y="290" as="targetPoint" />
          </mxGeometry>
        </mxCell>
        <mxCell id="XoTt8RrrgcYG-ivPWkyI-50" value="&lt;font style=&quot;font-size: 10px;&quot;&gt;Cleaned text&lt;/font&gt;" style="text;html=1;whiteSpace=wrap;strokeColor=none;fillColor=none;align=center;verticalAlign=middle;rounded=0;" vertex="1" parent="XoTt8RrrgcYG-ivPWkyI-69">
          <mxGeometry x="210" y="110" width="60" height="20" as="geometry" />
        </mxCell>
        <mxCell id="XoTt8RrrgcYG-ivPWkyI-51" value="&lt;font style=&quot;font-size: 10px;&quot;&gt;Draft Summary&lt;/font&gt;" style="text;html=1;whiteSpace=wrap;strokeColor=none;fillColor=none;align=center;verticalAlign=middle;rounded=0;" vertex="1" parent="XoTt8RrrgcYG-ivPWkyI-69">
          <mxGeometry x="202.5" y="180" width="80" height="20" as="geometry" />
        </mxCell>
        <mxCell id="XoTt8RrrgcYG-ivPWkyI-52" value="&lt;font style=&quot;font-size: 10px;&quot;&gt;Alerts&lt;/font&gt;" style="text;html=1;whiteSpace=wrap;strokeColor=none;fillColor=none;align=center;verticalAlign=middle;rounded=0;" vertex="1" parent="XoTt8RrrgcYG-ivPWkyI-69">
          <mxGeometry x="200" y="250" width="80" height="20" as="geometry" />
        </mxCell>
        <mxCell id="XoTt8RrrgcYG-ivPWkyI-61" value="" style="shape=providedRequiredInterface;html=1;verticalLabelPosition=bottom;sketch=0;rotation=-180;" vertex="1" parent="XoTt8RrrgcYG-ivPWkyI-69">
          <mxGeometry y="25" width="20" height="20" as="geometry" />
        </mxCell>
        <mxCell id="XoTt8RrrgcYG-ivPWkyI-71" value="" style="line;strokeWidth=1;fillColor=none;align=left;verticalAlign=middle;spacingTop=-1;spacingLeft=3;spacingRight=3;rotatable=0;labelPosition=right;points=[];portConstraint=eastwest;strokeColor=inherit;" vertex="1" parent="XoTt8RrrgcYG-ivPWkyI-69">
          <mxGeometry x="20" y="1" width="10" height="68" as="geometry" />
        </mxCell>
        <mxCell id="XoTt8RrrgcYG-ivPWkyI-54" value="" style="endArrow=classic;html=1;rounded=0;entryX=0.5;entryY=1;entryDx=0;entryDy=0;exitX=0.5;exitY=0;exitDx=0;exitDy=0;" edge="1" parent="XoTt8RrrgcYG-ivPWkyI-72" source="XoTt8RrrgcYG-ivPWkyI-49" target="XoTt8RrrgcYG-ivPWkyI-22">
          <mxGeometry width="50" height="50" relative="1" as="geometry">
            <mxPoint x="220" y="240" as="sourcePoint" />
            <mxPoint x="270" y="190" as="targetPoint" />
          </mxGeometry>
        </mxCell>
        <mxCell id="XoTt8RrrgcYG-ivPWkyI-67" value="" style="endArrow=none;html=1;rounded=0;entryX=0.5;entryY=1;entryDx=0;entryDy=0;exitX=1;exitY=0.5;exitDx=0;exitDy=0;exitPerimeter=0;endFill=0;" edge="1" parent="XoTt8RrrgcYG-ivPWkyI-72" source="XoTt8RrrgcYG-ivPWkyI-61" target="XoTt8RrrgcYG-ivPWkyI-49">
          <mxGeometry width="50" height="50" relative="1" as="geometry">
            <mxPoint x="400" y="260" as="sourcePoint" />
            <mxPoint x="450" y="210" as="targetPoint" />
            <Array as="points">
              <mxPoint x="370" y="45" />
              <mxPoint x="370" y="180" />
              <mxPoint x="370" y="320" />
              <mxPoint x="75" y="320" />
            </Array>
          </mxGeometry>
        </mxCell>
      </root>
    </mxGraphModel>
  </diagram>
</mxfile>
